<?xml version="1.0" encoding="UTF-8" standalone="no"?>
<!-- Created with Inkscape (http://www.inkscape.org/) -->

<svg
   xmlns:dc="http://purl.org/dc/elements/1.1/"
   xmlns:cc="http://creativecommons.org/ns#"
   xmlns:rdf="http://www.w3.org/1999/02/22-rdf-syntax-ns#"
   xmlns:svg="http://www.w3.org/2000/svg"
   xmlns="http://www.w3.org/2000/svg"
   xmlns:sodipodi="http://sodipodi.sourceforge.net/DTD/sodipodi-0.dtd"
   xmlns:inkscape="http://www.inkscape.org/namespaces/inkscape"
   id="svg2"
   version="1.1"
   inkscape:version="0.48.2 r9819"
   width="937.8"
   height="937.8"
   xml:space="preserve"
   sodipodi:docname="icon.eps"><metadata
     id="metadata8"><rdf:RDF><cc:Work
         rdf:about=""><dc:format>image/svg+xml</dc:format><dc:type
           rdf:resource="http://purl.org/dc/dcmitype/StillImage" /><dc:title></dc:title></cc:Work></rdf:RDF></metadata><defs
     id="defs6"><clipPath
       clipPathUnits="userSpaceOnUse"
       id="clipPath3801"><rect
         style="fill:none;stroke:#000000;stroke-width:16.2394371;stroke-miterlimit:4;stroke-opacity:1;stroke-dasharray:none"
         id="rect3803"
         width="6771.2344"
         height="4617.5254"
         x="381.47797"
         y="-5984.4878"
         transform="scale(1,-1)" /></clipPath></defs><sodipodi:namedview
     pagecolor="#ffffff"
     bordercolor="#666666"
     borderopacity="1"
     objecttolerance="10"
     gridtolerance="10"
     guidetolerance="10"
     inkscape:pageopacity="0"
     inkscape:pageshadow="2"
     inkscape:window-width="1726"
     inkscape:window-height="1024"
     id="namedview4"
     showgrid="false"
     inkscape:zoom="0.25165281"
     inkscape:cx="-234.45"
     inkscape:cy="468.89999"
     inkscape:window-x="132"
     inkscape:window-y="0"
     inkscape:window-maximized="0"
     inkscape:current-layer="g10" /><g
     id="g10"
     inkscape:groupmode="layer"
     inkscape:label="ink_ext_XXXXXX"
     transform="matrix(1.25,0,0,-1.25,0,937.8)"><g
       id="g12"
       transform="scale(0.1,0.1)"
       clip-path="url(#clipPath3801)"><path
         d="m 10,10 7482.4,0 0,7482.4 L 10,7492.4 10,10 z"
         style="fill:none;stroke:#ffffff;stroke-opacity:1;stroke-width:20;stroke-linecap:butt;stroke-linejoin:miter;stroke-miterlimit:10;stroke-dasharray:none"
         id="path14" /><path
         d="m 6708.99,3524.17 c 0,-122.41 -52.44,-183.65 -157.21,-183.65 -463.3,0 -926.6,-28.82 -1389.9,-30.46 -210.76,-0.75 -424.52,20.12 -634.93,31.35 -34.11,1.82 5.49,-403.34 23.6,-440.82 73.4,-151.96 255,-168.36 404.22,-179.97 345.7,-26.9 694.86,-2.13 1041.17,-1.87 158.69,0.11 703.57,110.21 703.57,-151.16 0,-131.37 -49.16,-196.95 -147.73,-196.95 l -1504.23,0 c -219.63,0 -421,39.04 -604.21,117.38 -224.83,102.19 -337.19,255.06 -337.19,458.38 l 0,1144.23 c 0,109.91 37.26,209.69 111.73,299.36 196.47,236.56 544.86,294.44 835.34,282.79 81.56,-3.27 159.36,-7.82 240.17,6.02 70.37,12.05 142.15,34.8 211.89,5.95 165.25,-68.34 157.83,-322.99 -25.29,-355.01 -111.14,-19.43 -232.72,10.01 -345.03,8.83 -129.65,-1.36 -258.96,-20.26 -385.6,-47.25 -86.9,-18.52 -178.39,-31.84 -211,-124.43 -49.1,-139.47 -15.69,-333.04 -13.01,-477.31 398.84,-46.82 817.89,-32.43 1219.29,-32.43 218.33,0 436.65,50.27 654.98,50.14 135.52,-0.08 309.37,4 309.37,-183.12"
         style="fill:none;stroke:#231f20;stroke-opacity:1;stroke-width:20;stroke-linecap:butt;stroke-linejoin:miter;stroke-miterlimit:10;stroke-dasharray:none"
         id="path16" /><path
         d="m 6450.13,4097.44 c -103.57,-12.45 -211.78,13.09 -300.58,68.72 -280.66,175.81 -285.66,649.54 32.41,792.94 80.28,36.2 168.86,38.81 254.5,23.86 224.78,-39.23 399.6,-130.46 424.85,-383.07 18.43,-184.23 -110.59,-373.94 -271.14,-459.09 -44.02,-23.34 -91.52,-37.52 -140.04,-43.36 z"
         style="fill:none;stroke:#231f20;stroke-opacity:1;stroke-width:20;stroke-linecap:butt;stroke-linejoin:miter;stroke-miterlimit:10;stroke-dasharray:none"
         id="path18" /><path
         d="m 6325.04,4546.35 c -4.25,23.8 2.5,49.18 26.17,69.28 76.58,65.05 185.79,-56.95 107.42,-124.27 -54.69,-46.99 -123.73,-0.22 -133.59,54.99 z m 342.79,33.88 c -36.82,201.93 -314.28,359.27 -474.16,131.09 -86.3,-123.15 -69.5,-301.21 65.27,-386.35 99.05,-62.57 245.44,-55.1 331.03,28.33 71.85,70.05 91.6,151.59 77.86,226.93 z"
         style="fill:none;stroke:#231f20;stroke-opacity:1;stroke-width:20;stroke-linecap:butt;stroke-linejoin:miter;stroke-miterlimit:10;stroke-dasharray:none"
         id="path20" /><path
         d="m 6373.31,3919 c 14.4,2.63 14.8,27.86 37.41,59.11 89.57,123.82 101.41,-83.6 173.18,-26.31 40.18,32.08 17.16,100.56 86.71,108.39 32.81,3.7 80.29,-49.02 107.67,-27.87 27.21,21.02 -8.5,101.69 17.27,132.59 36.77,44.09 89.01,-5.4 124.37,18.78 42.43,29.02 -2.91,61.58 -9.36,102.78 -10.1,64.47 4.81,53.77 58.55,79.15 145.61,68.78 -54.95,85.14 -21.28,170.19 14.46,36.54 107.18,35.04 101.84,88.94 -5.42,54.53 -103.29,35.09 -124.96,69.23 -49.12,77.41 191.01,160.08 -8.19,162.56 -200.29,2.49 25.46,148.95 -64.74,174.8 -44.52,12.75 -120.7,-76.32 -164.07,-31.85 -34.31,35.2 39.07,114.2 11.47,142.88 -27.56,28.62 -112.45,-57.03 -145.43,-58.42 -84.41,-3.55 -28.63,44.44 -61.06,90.7 -39.47,56.29 -86.6,-24.12 -105.21,-47.07 -26.45,-32.63 2.78,-46.75 -47.72,-35.52 -22.66,5.04 -108.28,124.68 -129.91,75.67 -22.97,-52.07 45.17,-106.41 -42.59,-122.54 -32.08,-5.9 -134.47,63.07 -154.88,37.55 -20.73,-25.94 51.34,-96.42 25.86,-135.87 -36.49,-56.48 -121.56,9.93 -161.85,-18.21 -44.19,-30.86 23.52,-59.85 35.48,-100.12 35.34,-118.98 -201.14,-47.61 -108.3,-158.66 32.97,-39.44 84.78,-38.7 56.04,-90.32 -18.94,-34.01 -112.73,-35.01 -99.07,-91.7 11.71,-48.62 103.21,-29.77 120.02,-66.7 19.97,-43.89 -49.17,-73.46 -56.66,-114.01 -20.87,-112.94 148.51,11.47 136.17,-122.43 -4.05,-43.98 -41.66,-94.48 14.61,-105.67 43.09,-8.58 81.71,62.89 126.89,27.21 33.92,-26.78 -4.16,-117.76 29.09,-137.38 32.76,-19.33 71.32,46.33 105.42,50.61 73.05,9.17 60.7,-61.18 106.57,-89.15 15.1,-9.21 24.26,-12.51 30.66,-11.34 z"
         style="fill:none;stroke:#231f20;stroke-opacity:1;stroke-width:20;stroke-linecap:butt;stroke-linejoin:miter;stroke-miterlimit:10;stroke-dasharray:none"
         id="path22" /><path
         d="m 5548.22,5237.17 c 77.47,-36.5 144.18,-175.35 185.65,-237.97 -90.13,-74.62 -262.29,-89.88 -364.92,-35.32 21.29,38.1 95.3,274.29 127.45,280.76 17.68,3.55 35.01,0.45 51.82,-7.47 z m -69.25,220.98 c -63.04,26.17 -143.23,202.04 -181.44,247.43 92.93,79.82 257.41,78.73 364.92,37.44 -14.52,5.58 -89.69,-295.43 -171.41,-288 -3.94,0.35 -7.96,1.42 -12.07,3.13 z m -28.91,-112.53 c -1.58,34.42 16.05,70.89 58.62,75.15 84.02,8.41 97.06,-76.15 36.27,-121.17 -56.67,-41.97 -92.78,0.23 -94.89,46.02 z m 330.41,-315.13 c -0.4,-0.32 -0.81,-0.63 -1.23,-0.92 -34.07,51.24 -80.08,94.64 -116.94,143.92 -51.49,68.87 -52.26,84.42 -39.7,161.79 1.84,11.37 287.1,28.42 309.6,31.92 14.19,2.2 -24.07,-161 -29.76,-174.71 -26.1,-62.98 -67.72,-120.4 -121.97,-162 z m 145.93,390.52 c 0.06,-0.56 0.12,-1.13 0.18,-1.7 -0.85,8.18 -158.46,-20.07 -175.19,-22.66 -69.81,-10.8 -119.41,-19.46 -168.34,40.98 46.69,92.12 86.27,189.23 128.85,283.62 39.95,-22.02 79.45,-55.82 111.02,-89.06 54.94,-57.87 94.65,-130.69 103.48,-211.18 z m -676.26,253.79 c 42.44,-60.07 212.29,-222.94 156.15,-292.27 -53.69,-66.31 -230.91,-35.08 -305.34,-42.56 -15.34,78.74 17.91,161 59.26,226.22 6.74,10.61 86.14,113.91 89.93,108.61 z m -146.38,-391.53 c 7.7,-45.5 294.11,74.07 310.22,31.17 6.95,-18.48 18.56,-34.52 33.5,-46.52 l -128.27,-284.28 c -111.14,59.35 -193.54,167.93 -215.45,299.63 z m 514.79,-473.43 c 0,0 -3.44,34.66 -4.33,43.21 -0.83,8.52 17.24,15.21 17.22,15.35 19.9,4.73 39.27,10.54 58.1,17.57 0,0 18.69,4.51 22.73,-3.03 4.08,-7.52 20.52,-38.26 20.52,-38.26 4.59,-8.54 15.27,-11.76 23.82,-7.18 l 54.49,29.23 c 8.56,4.6 11.8,15.26 7.23,23.82 0,0 -16.5,30.68 -20.59,38.26 -4.01,7.55 10.1,20.6 10.05,20.72 16.43,11.95 32.09,24.81 46.94,38.52 0,-0.02 15.54,11.32 22.18,5.91 6.64,-5.44 33.64,-27.48 33.64,-27.48 7.49,-6.16 18.57,-5.05 24.71,2.47 l 39.19,47.86 c 6.13,7.51 5,18.59 -2.5,24.77 0,0 -26.98,22.06 -33.62,27.49 -6.63,5.44 1.43,22.93 1.36,22.97 10.55,17.22 20.06,35.11 28.64,53.53 -0.07,0 9.96,16.4 18.19,13.95 8.2,-2.47 41.57,-12.55 41.57,-12.55 9.31,-2.81 19.1,2.48 21.93,11.76 l 17.86,59.22 c 2.78,9.31 -2.46,19.09 -11.75,21.9 0,0 -33.36,10.07 -41.56,12.56 -8.06,2.44 -7.49,20.95 -7.49,21.59 3.17,19.88 5.02,40.1 5.87,60.58 0,0 2.96,18.98 11.5,19.84 8.54,0.85 43.21,4.32 43.21,4.32 9.64,0.95 16.73,9.63 15.75,19.24 l -6.16,61.58 c -0.95,9.63 -9.59,16.7 -19.26,15.74 0,0 -34.67,-3.47 -43.2,-4.32 -8.54,-0.86 -15.2,17.19 -15.36,17.18 -4.73,20 -10.59,39.47 -17.63,58.34 -0.32,1.35 -4.16,18.64 3.05,22.5 7.59,4.05 38.3,20.51 38.3,20.51 8.56,4.6 11.77,15.27 7.19,23.82 0,0 -27.3,50.96 -29.11,54.33 -11.72,21.86 -55.63,-12.93 -78.18,-1.14 -23.26,12.15 -32.88,63.88 -38.19,87.01 -11.11,48.47 8.41,59.22 -39.34,67.22 -47.46,7.95 -68.44,-39.66 -115.07,5.45 -22.79,22.05 -19.03,90.57 -52.51,97.66 -30.47,6.45 -67.78,-56.84 -105.11,-56.25 -50.57,0.81 -59.98,64.49 -97.62,70.87 -42.32,7.19 -40.25,-36.96 -68.8,-61.36 -47.15,-40.29 -58.55,-16.63 -111.77,-9.48 -107.62,14.45 -35.4,-91.39 -127.76,-123.16 -32.94,-11.32 -80.16,17.32 -101.03,-19.51 -17.09,-30.15 29.36,-79.44 13.16,-115.56 -19.47,-43.43 -86.47,-28.8 -105.2,-61.02 -22.39,-38.52 22.67,-50.16 36.72,-86.08 24.16,-61.77 -8.31,-61.33 -37.69,-107.89 -30.56,-48.46 -34.12,-23.16 4.49,-67.09 45.5,-51.78 66.74,-42.69 51.63,-117.51 -12.26,-60.72 -37.74,-46.82 19.05,-82.43 50.46,-31.64 70.27,-13.26 91.66,-74.12 21.73,-61.86 25.74,-146.08 92.64,-63.78 5.41,6.62 22.9,-1.42 22.98,-1.28 17.21,-10.61 35.12,-20.09 53.57,-28.7 0,0 16.38,-9.99 13.9,-18.19 -2.46,-8.21 -12.54,-41.58 -12.54,-41.58 -2.82,-9.3 2.48,-19.1 11.79,-21.93 l 59.21,-17.85 c 9.3,-2.83 19.08,2.45 21.89,11.74 0,0 10.08,33.39 12.58,41.58 2.42,8.15 21.17,7.51 21.6,7.51 19.85,-3.18 40.04,-5.06 60.51,-5.89 0,0 19.02,-2.99 19.89,-11.49 0.85,-8.54 4.31,-43.24 4.31,-43.24 0.95,-9.65 9.59,-16.7 19.25,-15.72 l 61.57,6.15 c 9.64,0.97 16.7,9.57 15.73,19.24 z"
         style="fill:none;stroke:#231f20;stroke-opacity:1;stroke-width:20;stroke-linecap:butt;stroke-linejoin:miter;stroke-miterlimit:10;stroke-dasharray:none"
         id="path24" /><path
         d="m 2395.09,1870.95 c -5.83,18.87 -120.67,169.99 -114.92,178.42 -0.06,-0.08 -124.08,-181.99 -125.04,-183.39 27.46,39.71 197.43,-2.95 239.96,4.97 z m 199.42,-160.17 c -0.23,-7.67 -2.47,-13.79 -7.07,-18.06 -70.19,-65.03 -95.47,84.88 -137.09,105.71 -42.23,21.14 -147.41,-0.18 -194.68,-0.21 -46.69,-0.03 -120.5,16.18 -158.57,-10.87 -32.57,-23.15 -28.15,-83.63 -67.99,-98.44 -96.07,-35.64 38.86,173.47 55.54,198.89 48.58,74.07 96.95,148.29 145.34,222.49 10.6,16.25 28.74,24.35 54.64,24.35 19.12,0 31.98,-5.41 38.36,-16.23 0.45,-0.74 1.02,-1.79 1.63,-3.12 0.65,-1.37 1.54,-3.06 2.82,-5 28.85,-43.83 269.61,-315.19 267.07,-399.51 z"
         style="fill:none;stroke:#231f20;stroke-opacity:1;stroke-width:20;stroke-linecap:butt;stroke-linejoin:miter;stroke-miterlimit:10;stroke-dasharray:none"
         id="path26" /><path
         d="m 3043.67,1793.55 c 1.53,3.12 2.82,6.41 3.89,9.91 14.76,48.61 26.64,148.69 -42.5,161.78 -11.64,2.21 -33.09,3.34 -64.49,3.34 -57.27,0 -158.11,28.87 -204.69,-16.36 -42.67,-41.43 -22.36,-148.91 -20.19,-204.37 76.56,0 286.5,-39.32 327.98,45.7 z m 81.26,-0.41 c -22.82,-67.87 -78.6,-110.24 -166.39,-110.24 0,0 -242.85,0 -242.85,-0.01 0,-37.08 -3,-151.01 -65.3,-92.7 -32.62,30.52 -12.41,134.11 -12.26,174.59 0.55,156.88 -15.73,269.12 177.56,269.12 0,0 123.97,0 124.01,0 110.05,-0.01 190.14,-26.91 196.54,-144.35 1.94,-35.72 -1.85,-68.26 -11.31,-96.41 z"
         style="fill:none;stroke:#231f20;stroke-opacity:1;stroke-width:20;stroke-linecap:butt;stroke-linejoin:miter;stroke-miterlimit:10;stroke-dasharray:none"
         id="path28" /><path
         d="m 3588.32,1800.24 c 41.9,50.57 31.54,132.07 -43.7,164.96 -40.82,17.84 -290.12,29.24 -290.12,-38.33 0,-0.01 0,-178.08 0,-179.04 1.52,-25.47 259.27,-5.84 286.03,10.3 16.6,10.02 33.49,24.85 47.79,42.11 z m 77.32,-7.74 c 0,-73.06 -56.1,-109.6 -168.31,-109.6 l -242.83,0 0,-71.99 c 0,-13.77 -5.23,-22.48 -15.89,-26.18 -3.16,-1.71 -14.24,-2.57 -33.21,-2.57 -19.16,0 -28.74,9.57 -28.74,28.75 0,99.25 -23.22,225.86 3.74,321.05 42.07,148.47 485.24,159.99 485.24,-2.19 0,-0.03 0,-137.27 0,-137.27 z"
         style="fill:none;stroke:#231f20;stroke-opacity:1;stroke-width:20;stroke-linecap:butt;stroke-linejoin:miter;stroke-miterlimit:10;stroke-dasharray:none"
         id="path30" /><path
         d="m 4427.73,1904.71 c 0,-23.88 -10.16,-35.79 -30.53,-35.81 -32.2,-0.03 -394.58,-0.03 -394.58,0 l 0,-73.79 c 0,-31.72 35.09,-47.63 105.16,-47.63 l 289.37,0 c 18.96,0 28.57,-9.5 28.8,-28.57 1.02,-89.06 -310.27,-51.3 -353.62,-40.46 -87.77,21.96 -139.25,49.01 -156.54,143.27 -13.4,73.03 -21.21,189.04 26.36,252.34 35.69,47.46 277.35,103.36 277.43,17.84 0.05,-53.02 -115.24,-22.09 -150.18,-34.71 -56.66,-20.45 -66.76,-62.53 -67.51,-120.74 131.89,0.01 263.77,0 395.65,0 20.1,0 30.19,-10.56 30.19,-31.74 z"
         style="fill:none;stroke:#231f20;stroke-opacity:1;stroke-width:20;stroke-linecap:butt;stroke-linejoin:miter;stroke-miterlimit:10;stroke-dasharray:none"
         id="path32" /><path
         d="m 4952.97,1709.11 c 0,-19.46 -9.71,-29.17 -29.2,-29.17 -19.15,0 -30.35,0.89 -33.51,2.57 -10.66,3.73 -15.89,12.59 -15.89,26.6 0,61.07 14.1,139.79 1.21,198.55 -21.56,98.2 -327.54,94.4 -327.54,26.2 0,-0.04 0,-224.75 0,-224.75 0,-19.46 -9.58,-29.17 -28.68,-29.17 -19.24,0 -30.4,0.89 -33.58,2.57 -10.35,3.73 -15.55,12.59 -15.55,26.6 0,0 0,221.83 0,224.05 0.04,169.7 482.74,161.81 482.74,0.7 0,-0.03 0,-224.75 0,-224.75 z"
         style="fill:none;stroke:#231f20;stroke-opacity:1;stroke-width:20;stroke-linecap:butt;stroke-linejoin:miter;stroke-miterlimit:10;stroke-dasharray:none"
         id="path34" /><path
         d="m 5414.2,1749.95 c 6.54,153.48 16.9,225.5 -151.88,223.92 -56.47,-0.52 -126.37,2.34 -160.94,-50.82 -38.74,-59.57 -31.05,-148.36 41.68,-169.35 77.39,-22.34 193.14,-29.17 271.14,-3.75 z m 80.54,-58.2 c 0,-40.57 -25.34,-70.34 -76.01,-89.3 -33.72,-13.5 -76.44,-20.29 -128.02,-20.29 l -32.58,0 c -19.41,0 -29.08,12.14 -29.08,36.52 0,19.21 9.67,28.81 29.08,28.81 l 56.54,0 c 9.79,0 28.3,3.54 55.34,10.69 28.05,8.13 42.92,16.37 44.64,24.72 l -213.7,0 c -50.41,0 -91.85,6.27 -124.36,18.8 -47.21,17.98 -70.9,48.11 -70.9,90.43 0,88.08 -20.61,178.76 71.7,225.88 88.25,45.03 417.35,58.76 417.35,-95.19 0,-0.07 0,-231.07 0,-231.07 z"
         style="fill:none;stroke:#231f20;stroke-opacity:1;stroke-width:20;stroke-linecap:butt;stroke-linejoin:miter;stroke-miterlimit:10;stroke-dasharray:none"
         id="path36" /><path
         d="m 5622.47,1712.74 c -10.38,-31.54 -27.28,-46.23 -54.29,-27.48 -50.41,35.08 -12.14,266.27 -12.14,320.94 0,19.18 9.68,28.83 29.16,28.83 18.68,0 29.65,-0.9 32.84,-2.65 10.25,-3.63 15.5,-12.39 15.5,-26.18 0,-29.65 14.95,-214.43 -11.07,-293.46 z m 15.16,370 c -2.83,-10.49 -10.91,-21.36 -26.31,-30.87 -45.35,-28.03 -80.02,3.62 -50.87,50.74 30.87,49.91 87.24,17.41 77.18,-19.87 z"
         style="fill:none;stroke:#231f20;stroke-opacity:1;stroke-width:20;stroke-linecap:butt;stroke-linejoin:miter;stroke-miterlimit:10;stroke-dasharray:none"
         id="path38" /><path
         d="m 6178.73,1708.29 c -3.02,-8.54 -7.63,-15.13 -14.4,-18.82 -101.56,-55.33 -53.56,155.5 -57.19,190.02 -13.04,123.82 -168.14,100.63 -260.06,86.66 -127.46,-19.37 -57.17,-123.25 -72.83,-219.6 -5.32,-32.77 -10.44,-80.96 -63.06,-53.43 -41.2,21.56 -14.71,72.33 -13.48,110.58 2.27,70.99 -12.7,164.39 56.25,208.59 86.53,55.45 320.06,55.77 394.92,-18.69 41.63,-41.41 27.11,-90.59 26.05,-143.75 -0.55,-28.4 17.17,-103.85 3.8,-141.56 z"
         style="fill:none;stroke:#231f20;stroke-opacity:1;stroke-width:20;stroke-linecap:butt;stroke-linejoin:miter;stroke-miterlimit:10;stroke-dasharray:none"
         id="path40" /><path
         d="m 6633,1886.31 c 33,138.9 -335.52,110.37 -335.52,40.56 0,-0.01 0,-40.61 0,-40.61 111.84,0 223.67,-0.16 335.52,0.05 z m 66.06,-28.12 c -64.68,-81.51 -311.66,-39.49 -399.05,-39.49 l 0,-2.58 c 0,-33.45 19.75,-54.98 59.1,-64.55 8.6,-2.01 21.11,-3.54 37.47,-4.61 16.42,-1.11 37.19,-1.68 62.56,-1.68 19.2,0 28.81,-12.1 28.81,-36.17 0,-19.46 -9.61,-29.17 -28.81,-29.17 -26.05,0 -47.46,0.18 -64.06,0.57 -16.59,0.4 -29.2,1.05 -37.75,2 -42.83,4.47 -74.32,14.55 -94.55,30.3 -28.77,22.39 -43.16,48.67 -43.16,78.95 0,0 0,128.9 0,130.27 0,166.08 441.86,168.38 487.96,24.56 12.56,-39.18 7.86,-67.75 -8.52,-88.4 z"
         style="fill:none;stroke:#231f20;stroke-opacity:1;stroke-width:20;stroke-linecap:butt;stroke-linejoin:miter;stroke-miterlimit:10;stroke-dasharray:none"
         id="path42" /><path
         d="m 635.41,2741.69 c 25.613,72.06 67.371,138.73 125.695,195.83 l 240.855,-290.13 c -7.187,-10.61 -13.362,-22.07 -18.042,-34.61 -25.371,-68.69 -0.695,-143.5 55.612,-184.8 0,0 -130.663,-353.32 -130.721,-353.48 -5.497,-14.87 -174.102,132.75 -185.153,146.34 -54.015,66.43 -92.511,142.83 -108.379,227.19 -18.972,100.92 -12.562,201.68 20.133,293.66 z m 683.81,315.28 c 158.87,-58.73 294.37,-199.87 330.49,-367.93 -29.04,-3.34 -364.46,-75.78 -370.9,-62.41 -17.42,36.16 -48.25,65.91 -88.86,80.97 -40.6,14.98 -83.35,12.39 -120.09,-3.73 -79.84,96.18 -156.422,196.62 -240.954,288.7 135.782,104.89 332.344,122.79 490.314,64.4 z m -230.16,-483.09 c 9.22,25.01 37.02,37.79 62.01,28.63 25.03,-9.31 37.86,-37.12 28.54,-62.14 -9.22,-25.02 -36.98,-37.77 -62.05,-28.57 -25.03,9.31 -37.77,37.07 -28.5,62.08 z m -97.513,-529.99 c 0.031,0.08 130.763,353.47 130.763,353.47 69.58,-5.26 137.07,35.45 162.41,104.18 4.73,12.49 7.51,25.28 8.87,38.04 74.96,12.82 307.85,96.9 357.59,42.54 51.57,-56.36 -15.48,-216.41 -42.1,-270.39 -50.07,-101.49 -141.14,-185.57 -242.45,-234.81 -58.35,-28.36 -122.16,-44.28 -186.45,-49.93 -15.79,-1.4 -192.285,7.03 -188.633,16.9 z M 905.203,1937.6 c 119.917,-44.92 251.357,-54.5 376.877,-14.33 200.87,64.29 394.58,204.01 469.17,405.75 125.97,340.71 -48.06,719.04 -388.77,845 C 960.754,3322.55 622.129,3065.14 497.047,2692 c -46.832,-139.7 -36.031,-287.25 30.652,-418.7 77.188,-152.17 217.008,-275.59 377.504,-335.7 z"
         style="fill:none;stroke:#231f20;stroke-opacity:1;stroke-width:20;stroke-linecap:butt;stroke-linejoin:miter;stroke-miterlimit:10;stroke-dasharray:none"
         id="path44" /><path
         d="m 670.562,4630.12 c -66.128,-189.13 -69.078,-429.77 -90.273,-615.04 -32.144,-280.95 -43.133,-563.95 -78.902,-844.54 -40.078,-314.41 -139.649,-708.83 25.351,-1003.81 146.438,-261.79 488.242,-377.93 774.192,-333.89 213.78,32.93 378.66,186.92 468.72,375.79 104.14,218.41 72.09,429 34.46,659.14 -36.34,222.25 -42.15,449.37 -74.91,672.54 -32.38,220.64 -57.11,441.19 -82.07,662.74 -13.27,118.16 -31.43,235.98 -46.02,353.81 1.18,252.56 -202.57,458.22 -455.08,459.37 -162.995,0.74 -349.159,-144.1 -427.163,-278.97 -19.109,-33.04 -34.988,-69.04 -48.305,-107.14 z"
         style="fill:none;stroke:#231f20;stroke-opacity:1;stroke-width:20;stroke-linecap:butt;stroke-linejoin:miter;stroke-miterlimit:10;stroke-dasharray:none"
         id="path46" /><path
         d="m 1182.2,4864.61 c 30.4,-6.64 142.39,-38.14 136.13,-45.76 -38.14,-46.4 -71.8,-121.49 -118.02,-158.54 -29.84,-23.92 -24.49,-8.55 -55.99,-21 -39.61,-15.65 -69.25,-18.72 -89.68,-62.94 -74.949,5.35 -149.308,19.37 -223.972,26.37 -0.535,166.55 197.792,274.43 344.842,263.09 1.14,-0.09 3.45,-0.51 6.69,-1.22 z m 289.85,-358.92 c -12.06,-110.51 -77.86,-202.16 -168.66,-251.61 0,0 -92.89,210.7 -93.18,211.37 5.89,-13.38 31.4,106.08 32.39,116.03 4.38,43.68 3.13,55.23 32.76,95.18 27.76,37.43 56.6,76.88 86.88,111.25 2.19,2.49 76,-97.25 82.03,-110.38 24.53,-53.43 34.1,-113.47 27.78,-171.84 z m -321.57,64.68 c 16.28,-1.74 27.94,-16.36 26.27,-32.61 -1.79,-16.27 -16.42,-28 -32.74,-26.17 -16.14,1.68 -27.95,16.3 -26.19,32.56 1.76,16.26 16.38,28.02 32.66,26.22 z m -317.542,-31.91 c 2.378,2.78 5.261,5.24 8.687,7.36 11.07,6.84 208.175,-17.64 208.865,-21.58 7.3,-42.14 41.62,-76.18 86.21,-81.06 8.14,-0.82 16.14,-0.59 23.99,0.44 l 93.25,-211.47 c -44.15,-15.3 -92.33,-21.34 -141.9,-15.96 -104.64,11.35 -184.243,66.25 -233.31,156.12 -21.027,38.6 -77.507,129.27 -45.792,166.15 z m -70.95,44.13 c -8.961,-65.3 -5.683,-130.99 10.715,-188.7 40.383,-142.06 190.41,-238.5 331.077,-253.78 221.33,-24.03 420.31,135.95 444.29,357.35 13.63,125.86 -95.1,320.37 -196.46,388.4 -105.23,70.62 -251.74,79.31 -367.766,30.72 -125.442,-52.53 -202.426,-192.35 -221.856,-333.99 z"
         style="fill:none;stroke:#231f20;stroke-opacity:1;stroke-width:20;stroke-linecap:butt;stroke-linejoin:miter;stroke-miterlimit:10;stroke-dasharray:none"
         id="path48" /><path
         d="m 3363.54,3814.18 c 0,0 0,290.61 0,291.68 0,379.17 -855.89,230.98 -1062.89,231.31 -195.26,0.3 -390.85,14.16 -586,9.83 -90.74,-2.01 -194.25,10.03 -283.51,-5.13 -136.46,-23.18 -76.15,-271.09 -76.82,-368.31 -0.67,-97.98 -52.01,-268.83 23.83,-348.9 79.06,-83.47 261.02,-37.53 361.18,-33.73 148.19,5.63 296.8,7.3 445.09,7.3 265.3,0 531.85,-16.24 796.76,4.42 126.01,9.83 382.36,29.89 382.36,211.53 m 421.25,2.81 c -96.41,-594.15 -865.52,-589.17 -1358.55,-573.36 -86.05,2.75 -172.07,6.22 -258.1,9.65 381.48,-227.77 839.99,-363.21 1253.28,-522.96 92.46,-35.73 268.16,-112.99 232.51,-243.47 -101.43,-371.08 -1193.59,241.27 -1364.25,318.86 -309.29,140.61 -624.24,268.63 -937.21,400.75 -23.14,-202.57 154.2,-753.55 -136.53,-825.39 -236.936,-58.53 -280.217,402.07 -291.87,537.29 -34.297,398.32 -13.172,805.44 -8.804,1204.87 2.566,234.73 -6.414,497.53 268.264,559.96 352.7,80.16 757.66,22 1115.99,17.04 557.01,-7.71 1484.65,47.89 1495.22,-740.05 0.69,-51.23 -2.77,-98.87 -9.95,-143.19"
         style="fill:#ffffff;fill-opacity:1;fill-rule:nonzero;stroke:none"
         id="path50" /><path
         d="m 3363.54,3814.18 c 0,0 0,290.61 0,291.68 0,379.17 -855.89,230.98 -1062.89,231.31 -195.26,0.3 -390.85,14.16 -586,9.83 -90.74,-2.01 -194.25,10.03 -283.51,-5.13 -136.46,-23.18 -76.15,-271.09 -76.82,-368.31 -0.67,-97.98 -52.01,-268.83 23.83,-348.9 79.06,-83.47 261.02,-37.53 361.18,-33.73 148.19,5.63 296.8,7.3 445.09,7.3 265.3,0 531.85,-16.24 796.76,4.42 126.01,9.83 382.36,29.89 382.36,211.53 m 421.25,2.81 c -96.41,-594.15 -865.52,-589.17 -1358.55,-573.36 -86.05,2.75 -172.07,6.22 -258.1,9.65 381.48,-227.77 839.99,-363.21 1253.28,-522.96 92.46,-35.73 268.16,-112.99 232.51,-243.47 -101.43,-371.08 -1193.59,241.27 -1364.25,318.86 -309.29,140.61 -624.24,268.63 -937.21,400.75 -23.14,-202.57 154.2,-753.55 -136.53,-825.39 -236.936,-58.53 -280.217,402.07 -291.87,537.29 -34.297,398.32 -13.172,805.44 -8.804,1204.87 2.566,234.73 -6.414,497.53 268.264,559.96 352.7,80.16 757.66,22 1115.99,17.04 557.01,-7.71 1484.65,47.89 1495.22,-740.05 0.69,-51.23 -2.77,-98.87 -9.95,-143.19 z"
         style="fill:none;stroke:#231f20;stroke-opacity:1;stroke-width:20;stroke-linecap:butt;stroke-linejoin:miter;stroke-miterlimit:10;stroke-dasharray:none"
         id="path52" /></g></g></svg>